<?xml version="1.0" encoding="utf-8"?>
<!-- Generator: Adobe Illustrator 26.2.1, SVG Export Plug-In . SVG Version: 6.00 Build 0)  -->
<svg version="1.1" id="Layer_1" xmlns="http://www.w3.org/2000/svg" xmlns:xlink="http://www.w3.org/1999/xlink" x="0px" y="0px"
	 viewBox="0 0 115.8 24" style="enable-background:new 0 0 115.8 24;" xml:space="preserve">
<path d="M-120.4,62.3c-5,0-9,4-9,9s4,9,9,9s9-4,9-9S-115.4,62.3-120.4,62.3z M-120.4,63.8c4.1,0,7.5,3.4,7.5,7.5v0.1
	c-1.4-0.8-3.3-1.7-3.4-1.8c-0.2-0.1-0.5-0.1-0.8,0.1l-2.9,2.1l-3.4-1.2c-0.2-0.1-0.4,0-0.6,0.1l-3.7,2.2c-0.1-0.5-0.2-1-0.2-1.5
	C-127.8,67.2-124.5,63.8-120.4,63.8z M-120.4,78.8c-3.1,0-5.7-1.9-6.9-4.5l3.7-2.2l3.5,1.2c0.2,0.1,0.5,0,0.7-0.1l2.9-2.1
	c0.8,0.4,2.5,1.2,3.5,1.9C-113.8,76.3-116.8,78.8-120.4,78.8z"/>
<g>
	<g>
		<path d="M28.7,17.6V6.8H33c0.7,0,1.3,0.1,1.8,0.4c0.5,0.3,0.8,0.7,1,1.1c0.2,0.5,0.3,0.9,0.3,1.4c0,0.6-0.1,1.1-0.4,1.5
			c-0.3,0.4-0.7,0.7-1.2,0.8v-0.4c0.7,0.2,1.2,0.5,1.5,1c0.4,0.5,0.5,1,0.5,1.7c0,0.6-0.1,1.2-0.4,1.7c-0.2,0.5-0.6,0.9-1.1,1.1
			c-0.5,0.3-1.1,0.4-1.8,0.4H28.7z M30.6,11.1H33c0.3,0,0.5-0.1,0.7-0.2c0.2-0.1,0.4-0.2,0.5-0.4c0.1-0.2,0.2-0.4,0.2-0.7
			c0-0.4-0.1-0.7-0.4-0.9c-0.2-0.2-0.6-0.4-1-0.4h-2.4V11.1z M30.6,15.9h2.7c0.3,0,0.6-0.1,0.8-0.2s0.4-0.3,0.6-0.5
			c0.1-0.2,0.2-0.5,0.2-0.8c0-0.3-0.1-0.5-0.2-0.8c-0.1-0.2-0.3-0.4-0.5-0.6c-0.2-0.1-0.5-0.2-0.9-0.2h-2.7V15.9z"/>
		<path d="M38.3,17.6v-11h1.8v11H38.3z"/>
		<path d="M46,17.8c-0.8,0-1.5-0.2-2.1-0.5s-1.1-0.9-1.4-1.5c-0.3-0.6-0.5-1.4-0.5-2.2c0-0.9,0.2-1.6,0.5-2.2
			c0.3-0.6,0.8-1.1,1.4-1.5c0.6-0.4,1.3-0.5,2.1-0.5c0.8,0,1.5,0.2,2.1,0.5c0.6,0.4,1.1,0.9,1.4,1.5s0.5,1.4,0.5,2.2
			c0,0.8-0.2,1.6-0.5,2.2c-0.3,0.6-0.8,1.1-1.4,1.5S46.8,17.8,46,17.8z M46,16.1c0.7,0,1.3-0.2,1.6-0.7c0.4-0.5,0.5-1.1,0.5-1.9
			c0-0.8-0.2-1.4-0.5-1.9C47.2,11.2,46.7,11,46,11c-0.5,0-0.9,0.1-1.2,0.3c-0.3,0.2-0.5,0.5-0.7,0.9c-0.1,0.4-0.2,0.8-0.2,1.3
			c0,0.8,0.2,1.4,0.5,1.9S45.3,16.1,46,16.1z"/>
		<path d="M55.2,17.8c-0.8,0-1.5-0.2-2.1-0.6c-0.6-0.4-1-0.9-1.4-1.5c-0.3-0.6-0.5-1.4-0.5-2.2c0-0.8,0.2-1.6,0.5-2.2
			c0.3-0.6,0.8-1.1,1.4-1.5c0.6-0.4,1.3-0.6,2.1-0.6c0.9,0,1.7,0.2,2.3,0.7c0.6,0.5,1.1,1.1,1.2,1.9L57,12.4c-0.1-0.4-0.4-0.8-0.7-1
			C56,11.1,55.6,11,55.2,11c-0.5,0-0.9,0.1-1.2,0.3c-0.3,0.2-0.5,0.5-0.7,0.9c-0.1,0.4-0.2,0.8-0.2,1.3c0,0.8,0.2,1.4,0.5,1.9
			c0.3,0.5,0.9,0.7,1.5,0.7c0.5,0,0.9-0.1,1.1-0.3c0.3-0.2,0.5-0.5,0.6-1l1.8,0.4c-0.2,0.8-0.7,1.5-1.3,1.9S56.1,17.8,55.2,17.8z"/>
		<path d="M60.3,17.6l0-10.8h1.8v6.6l3-3.9h2.3l-3.1,4.1l3.4,4h-2.4l-3.1-3.9v3.9H60.3z"/>
		<path d="M70.7,17.6L67.5,6.8h1.9l2.2,7.8l2.1-7.8l1.9,0l2.2,7.8l2.1-7.8h1.9l-3.2,10.8h-1.8l-2.2-7.7l-2.2,7.7H70.7z"/>
		<path d="M86.6,17.8c-0.8,0-1.5-0.2-2.1-0.5c-0.6-0.4-1.1-0.9-1.4-1.5c-0.3-0.6-0.5-1.4-0.5-2.2c0-0.9,0.2-1.6,0.5-2.2
			c0.3-0.6,0.8-1.1,1.4-1.5c0.6-0.4,1.3-0.5,2.1-0.5c0.8,0,1.5,0.2,2.1,0.5c0.6,0.4,1.1,0.9,1.4,1.5c0.3,0.6,0.5,1.4,0.5,2.2
			c0,0.8-0.2,1.6-0.5,2.2c-0.3,0.6-0.8,1.1-1.4,1.5C88.1,17.7,87.4,17.8,86.6,17.8z M86.6,16.1c0.7,0,1.3-0.2,1.6-0.7
			c0.3-0.5,0.5-1.1,0.5-1.9c0-0.8-0.2-1.4-0.5-1.9c-0.4-0.5-0.9-0.7-1.6-0.7c-0.5,0-0.9,0.1-1.2,0.3c-0.3,0.2-0.5,0.5-0.7,0.9
			c-0.1,0.4-0.2,0.8-0.2,1.3c0,0.8,0.2,1.4,0.5,1.9S85.9,16.1,86.6,16.1z"/>
		<path d="M92.3,17.6V9.5h1.6v2l-0.2-0.3c0.1-0.3,0.2-0.5,0.4-0.7c0.2-0.2,0.4-0.4,0.6-0.6c0.2-0.1,0.4-0.2,0.7-0.3s0.5-0.1,0.7-0.1
			s0.5,0,0.7,0v1.7c-0.2-0.1-0.5-0.1-0.8-0.1s-0.6,0.1-0.8,0.3c-0.2,0.1-0.5,0.3-0.6,0.5s-0.3,0.4-0.3,0.7c-0.1,0.3-0.1,0.6-0.1,0.9
			v4.1H92.3z"/>
		<path d="M98.2,17.6l0-10.8h1.8v6.6l3-3.9h2.3l-3.1,4.1l3.4,4h-2.4l-3.1-3.9v3.9H98.2z"/>
		<path d="M109.5,17.8c-1,0-1.8-0.2-2.4-0.7c-0.6-0.4-1-1.1-1.1-1.9l1.8-0.3c0.1,0.4,0.3,0.7,0.6,0.9c0.3,0.2,0.7,0.3,1.2,0.3
			c0.4,0,0.8-0.1,1-0.3c0.2-0.2,0.4-0.4,0.4-0.7c0-0.2,0-0.3-0.1-0.4c-0.1-0.1-0.3-0.2-0.6-0.3c-0.3-0.1-0.7-0.2-1.4-0.4
			c-0.7-0.2-1.2-0.4-1.6-0.6c-0.4-0.2-0.7-0.5-0.9-0.7s-0.3-0.6-0.3-1c0-0.5,0.1-0.9,0.4-1.3c0.3-0.4,0.6-0.7,1.1-0.9
			c0.5-0.2,1-0.3,1.7-0.3c0.6,0,1.2,0.1,1.7,0.3c0.5,0.2,0.9,0.5,1.2,0.8c0.3,0.4,0.5,0.8,0.6,1.3l-1.8,0.3c0-0.3-0.2-0.6-0.5-0.8
			s-0.6-0.3-1.1-0.3c-0.4,0-0.8,0-1,0.2c-0.3,0.2-0.4,0.4-0.4,0.6c0,0.2,0.1,0.3,0.2,0.4c0.1,0.1,0.3,0.2,0.6,0.3
			c0.3,0.1,0.8,0.2,1.4,0.4c0.6,0.2,1.2,0.4,1.5,0.6c0.4,0.2,0.7,0.5,0.8,0.8s0.3,0.7,0.3,1.1c0,0.8-0.3,1.5-0.9,1.9
			C111.3,17.6,110.5,17.8,109.5,17.8z"/>
	</g>
</g>
<path d="M394.6-190c0-50.6,0-101.2,0-152c50.7,0,101.3,0,152,0c1,2.8,2.8,5.6,2.9,8.5c0.3,18.6,0.1,37.3,0.1,55.9c0,1.8,0,3.5,0,5.6
	c20.9,0,41.2-0.1,61.5,0.1c2.8,0,5.7,1.9,8.5,2.9c0,50.6,0,101.2,0,152c-50.7,0-101.3,0-152,0c-1-2.7-2.8-5.3-2.9-8
	c-0.3-18.8-0.1-37.6-0.1-56.5c0-1.8,0-3.5,0-5.6c-21.1,0-41.6,0.1-62.1-0.1C399.8-187.2,397.2-189,394.6-190z M416.1-320.7
	c0,37.7,0,75,0,112.3c16.3,0,32.2,0,48.5,0c0-18.8,0-37.2,0-55.7c0-6.4,1.5-7.9,7.9-7.9c16.8,0,33.6,0,50.4,0c1.8,0,3.5,0,5.2,0
	c0-16.7,0-32.6,0-48.7C490.7-320.7,453.7-320.7,416.1-320.7z M485.9-138.4c37.5,0,74.7,0,112.2,0c0-37.5,0-74.7,0-112.1
	c-16.3,0-32.3,0-48.6,0c0,18.9,0,37.4,0,55.9c0,6-1.6,7.6-7.7,7.6c-16.8,0-33.7,0-50.5,0c-1.8,0-3.5,0-5.4,0
	C485.9-170.5,485.9-154.6,485.9-138.4z M486-250.6c0,14.2,0,28,0,42.2c14.2,0,28.1,0,42.2,0c0-14.2,0-28,0-42.2
	C514-250.6,500.1-250.6,486-250.6z"/>
<path d="M3.9,9.6c0-0.9,0-1.8,0-2.7c0-0.1,0.1-0.3,0.2-0.3c2-0.9,4-1.7,6-2.6c0.1-0.1,0.3-0.1,0.5,0c2.3,0.4,4.6,0.8,6.9,1.2
	c0.1,0,0.3,0.2,0.3,0.2c0,1.2,0,2.4,0,3.6c-0.7,0-1.3-0.1-2-0.1c-1.7-0.1-3.4-0.3-5.1-0.3C9.6,8.6,8.5,8.8,7.5,9
	C6.3,9.2,5.1,9.4,3.9,9.6z"/>
<path d="M21.3,15.2c0,1,0,2,0,3c-1,0.2-2.1,0.4-3.1,0.6c-2.5,0.4-5,0.9-7.5,1.3c-0.2,0-0.4,0-0.6-0.1c-0.3-0.1-0.5-0.3-0.8-0.3
	c-0.7-0.2-0.8-0.6-0.8-1.2c0.1-0.9,0-1.8,0-2.8c2.8,0.5,5.6-0.1,8.3-0.2C18.3,15.4,19.8,15.3,21.3,15.2z"/>
<path d="M13.6,9.8c2.6,0.2,5.2,0.3,7.8,0.5c0,1.2,0,2.3,0,3.5c-2.6,0.2-5.2,0.3-7.8,0.5C13.6,12.8,13.6,11.3,13.6,9.8z"/>
<path d="M12.1,10c0,1.4,0,2.7,0,4c-2.8,0.5-5.5-0.5-8.2-0.8c0-0.8,0-1.5,0-2.3c0.7-0.1,1.3-0.2,2-0.3c1.2-0.2,2.4-0.4,3.6-0.6
	C10.4,9.9,11.2,10,12.1,10z"/>
<path d="M3.9,14.5c1,0.2,2,0.3,3,0.5C6.9,15,7,15.2,7,15.3c0,1.2,0,2.5,0,3.8c-0.7-0.3-1.3-0.7-2-0.8c-1-0.3-1.3-0.9-1.2-1.8
	C3.9,15.8,3.9,15.2,3.9,14.5z"/>
<path d="M19.2,8.8c0-1,0-1.9,0-2.9c0.7,0.1,1.3,0.2,2,0.3c0.1,0,0.2,0.2,0.2,0.3c0,0.8,0,1.6,0,2.4C20.6,8.8,19.9,8.8,19.2,8.8z"/>
</svg>
