<?xml version="1.0" encoding="utf-8"?>
<!-- Generator: Adobe Illustrator 26.2.1, SVG Export Plug-In . SVG Version: 6.00 Build 0)  -->
<svg version="1.1" id="Layer_1" xmlns="http://www.w3.org/2000/svg" xmlns:xlink="http://www.w3.org/1999/xlink" x="0px" y="0px"
	 viewBox="0 0 114.6 31.6" style="enable-background:new 0 0 114.6 31.6;" xml:space="preserve">
<style type="text/css">
	.st0{fill-rule:evenodd;clip-rule:evenodd;}
</style>
<path class="st0" d="M21.1,4.8c-0.5,0.1-0.6,0.2-5,2.7c-1.2,0.7-2.4,1.4-2.6,1.5c-0.4,0.2-0.9,0.7-1.2,1c-0.2,0.3-0.4,0.8-0.5,1.4
	c0,0.2,0,2.1,0,4.6c0,4.8,0,4.4,0.3,5c0.2,0.4,0.5,0.8,0.8,1c0.2,0.2,0.9,0.6,4.2,2.5c2.9,1.7,3.5,2,3.9,2.1
	c0.5,0.2,0.7,0.2,1.1,0.1c0.5-0.1,1.3-0.6,4.2-2.2c3.2-1.9,4-2.3,4.3-2.5c0.3-0.2,0.7-0.7,0.8-1c0.3-0.6,0.3-0.3,0.3-5.3v-4.5
	l-0.1-0.4c-0.2-0.5-0.3-0.7-0.7-1.1c-0.4-0.4-0.3-0.3-4.8-2.9c-3.6-2.1-3.4-1.9-4.3-2C21.5,4.8,21.2,4.8,21.1,4.8 M22.3,6.8
	c0.2,0.1,3.7,2.1,5.5,3.1c0.8,0.5,1,0.6,1,0.6c-0.1,0.1-4.2,2.4-6.1,3.5l-0.8,0.4l-0.6-0.4c-1.4-0.8-5.9-3.4-6.2-3.6
	c-0.1-0.1-0.1-0.1,0.4-0.3c1.2-0.7,5.5-3.1,6.1-3.5C21.7,6.7,22,6.7,22.3,6.8 M29.8,16.6c0,1.2,0,2.5,0,2.9l0,0.7l-0.2,0.2
	c-0.2,0.2-0.9,0.6-3.3,2c-3,1.7-3.3,1.9-3.4,1.9c0,0,0-1.3,0-4l0-3.9l3.5-2l3.5-2l0,1.1C29.8,13.9,29.8,15.4,29.8,16.6"/>
<path d="M41.6,8.3v13.8h-2.1V8.3H41.6z M44.9,16.1h-3.9v-1.8h3.8c0.7,0,1.3-0.2,1.7-0.5c0.4-0.4,0.6-0.9,0.6-1.5
	c0-0.6-0.2-1.1-0.6-1.5c-0.4-0.3-1-0.5-1.7-0.5h-3.9V8.3h4.1c1.4,0,2.4,0.3,3.2,1c0.8,0.7,1.2,1.6,1.2,2.7c0,0.8-0.2,1.6-0.6,2.1
	c-0.4,0.6-1,1-1.8,1.2v-0.2c0.9,0.2,1.5,0.6,2,1.1c0.4,0.6,0.7,1.3,0.7,2.2c0,0.8-0.2,1.4-0.5,2c-0.4,0.6-0.9,1-1.5,1.3
	c-0.7,0.3-1.5,0.4-2.4,0.4h-4.2v-1.9h4.1c0.7,0,1.3-0.2,1.7-0.5c0.4-0.4,0.6-0.9,0.6-1.5c0-0.6-0.2-1.1-0.6-1.5
	C46.2,16.3,45.6,16.1,44.9,16.1z"/>
<path d="M53.1,22.1h-2v-14h2V22.1z"/>
<path d="M54.5,17.4c0-1,0.2-1.8,0.6-2.6c0.4-0.7,1-1.3,1.8-1.7c0.7-0.4,1.6-0.6,2.5-0.6c0.9,0,1.8,0.2,2.5,0.6
	c0.7,0.4,1.3,1,1.7,1.7c0.4,0.7,0.6,1.6,0.6,2.6c0,1-0.2,1.8-0.6,2.5c-0.4,0.7-1,1.3-1.7,1.7c-0.7,0.4-1.6,0.6-2.5,0.6
	c-0.9,0-1.8-0.2-2.5-0.6c-0.7-0.4-1.3-1-1.8-1.7C54.8,19.2,54.5,18.4,54.5,17.4z M56.6,17.4c0,0.6,0.1,1.1,0.4,1.6
	c0.2,0.5,0.6,0.8,1,1.1c0.4,0.3,0.9,0.4,1.5,0.4c0.6,0,1-0.1,1.5-0.4c0.4-0.3,0.8-0.6,1-1.1c0.2-0.5,0.4-1,0.4-1.6
	c0-0.6-0.1-1.1-0.4-1.6c-0.2-0.5-0.6-0.8-1-1.1c-0.4-0.3-0.9-0.4-1.5-0.4c-0.6,0-1.1,0.1-1.5,0.4c-0.4,0.3-0.8,0.6-1,1.1
	C56.7,16.3,56.6,16.8,56.6,17.4z"/>
<path d="M65.2,17.4c0-1,0.2-1.8,0.6-2.6c0.4-0.7,0.9-1.3,1.6-1.7c0.7-0.4,1.5-0.6,2.4-0.6c1.2,0,2.2,0.3,3,1
	c0.8,0.6,1.3,1.5,1.4,2.6h-2.1c-0.1-0.6-0.4-1-0.8-1.3c-0.4-0.3-0.9-0.4-1.5-0.4c-0.5,0-1,0.1-1.4,0.4s-0.7,0.6-0.9,1.1
	c-0.2,0.5-0.3,1-0.3,1.6c0,0.6,0.1,1.2,0.3,1.6c0.2,0.5,0.5,0.8,0.9,1.1c0.4,0.3,0.8,0.4,1.4,0.4c0.6,0,1.1-0.1,1.5-0.4
	c0.4-0.3,0.7-0.7,0.8-1.2h2c-0.1,0.7-0.4,1.3-0.8,1.8c-0.4,0.5-0.9,0.9-1.6,1.2c-0.6,0.3-1.3,0.5-2.1,0.5c-0.9,0-1.8-0.2-2.4-0.6
	c-0.7-0.4-1.2-1-1.6-1.7C65.4,19.3,65.2,18.4,65.2,17.4z"/>
<path d="M77.7,22.1h-2v-14h2v8.9l3.9-4.1h2.6l-3.5,3.7l3.5,5.6h-2.4L79.1,18l-1.5,1.5V22.1z"/>
<path d="M86,10.7c-0.4,0-0.7-0.1-0.9-0.4c-0.3-0.3-0.4-0.6-0.4-0.9c0-0.4,0.1-0.7,0.4-0.9c0.3-0.3,0.6-0.4,0.9-0.4
	c0.4,0,0.7,0.1,0.9,0.4s0.4,0.6,0.4,0.9c0,0.4-0.1,0.7-0.4,0.9S86.4,10.7,86,10.7z M85,22.1v-9.3h2v9.3H85z"/>
<path d="M88.1,12.8h5.6v1.7h-5.6V12.8z M93.8,8.1v1.8c-0.1,0-0.2,0-0.4,0c-0.1,0-0.3,0-0.4,0c-0.6,0-1,0.1-1.2,0.4
	c-0.2,0.3-0.3,0.7-0.3,1.1v10.6h-2V11.5c0-0.8,0.1-1.4,0.4-1.9C90.2,9,90.5,8.6,91,8.4c0.5-0.2,1-0.4,1.6-0.4c0.2,0,0.4,0,0.6,0
	C93.4,8.1,93.6,8.1,93.8,8.1z"/>
<path d="M96.3,12.8l3.1,8.8l-1.2,1.9l-4.2-10.8H96.3z M94.4,26.3v-1.7h1.3c0.3,0,0.6,0,0.8-0.1c0.2-0.1,0.4-0.2,0.6-0.4
	c0.2-0.2,0.4-0.5,0.5-0.8l3.9-10.6h2.1l-4.5,11.4c-0.3,0.8-0.7,1.4-1.2,1.8c-0.5,0.4-1.1,0.6-1.8,0.6c-0.3,0-0.6,0-0.9-0.1
	C94.9,26.4,94.7,26.4,94.4,26.3z"/>
</svg>
