<?xml version="1.0" encoding="UTF-8"?> <svg xmlns="http://www.w3.org/2000/svg" xmlns:xlink="http://www.w3.org/1999/xlink" version="1.1" id="Layer_1" x="0px" y="0px" viewBox="0 0 900 300" style="enable-background:new 0 0 900 300;" xml:space="preserve"> <style type="text/css"> .st0{fill:#111111;} .st1{clip-path:url(#SVGID_00000156565141530519340160000008534660036465896620_);} </style> <g> <path class="st0" d="M280.3,149c1.9-1,3.5-2.3,4.9-3.7c3.1-3.3,4.7-7.5,4.7-12.5c0-3.7-0.9-7.2-2.8-10.3c-1.8-3.1-4.6-5.7-8.1-7.5 c-3.6-1.9-7.9-2.8-13-2.8h-16.6h-3.9h-13.6v79.3h13.6h3.9h16.4c5.6,0,10.4-1,14.4-3.1c4-2.1,7.1-4.8,9.2-8.3 c2.1-3.4,3.2-7.3,3.2-11.7c0-5.7-1.8-10.5-5.4-14.4C285.3,152,283,150.3,280.3,149z M262.6,125.9c2.8,0,5.2,0.7,7,2.2 s2.7,3.6,2.7,6.5c0,3-0.9,5.2-2.7,6.6c-1.8,1.4-4.1,2.1-7,2.1h-13.3v-17.4H262.6z M272,174.6c-1.9,2-4.6,3-8,3h-14.7v-20.8h14.7 c2.2,0,4.2,0.4,5.8,1.3c1.6,0.9,2.9,2.1,3.8,3.7c0.9,1.6,1.3,3.3,1.3,5.3C275,170.2,274,172.7,272,174.6z"></path> <rect x="301.2" y="109.8" class="st0" width="17.3" height="81.6"></rect> <path class="st0" d="M371,139.3c-4.5-2.5-9.6-3.7-15.2-3.7c-5.8,0-10.9,1.3-15.4,3.8c-4.5,2.5-8,5.9-10.6,10.2 c-2.6,4.3-3.9,9.1-3.9,14.4c0,5.4,1.3,10.3,3.9,14.6c2.6,4.3,6.2,7.8,10.7,10.3c4.5,2.5,9.6,3.8,15.3,3.8c5.7,0,10.8-1.3,15.3-3.8 c4.5-2.5,8.1-6,10.7-10.3c2.6-4.3,3.9-9.2,3.9-14.7c0-5.3-1.3-10.1-3.9-14.4C379.1,145.2,375.5,141.8,371,139.3z M366.5,170.8 c-1,2-2.5,3.5-4.3,4.6c-1.9,1-4,1.6-6.4,1.6c-2.4,0-4.5-0.5-6.4-1.6c-1.9-1-3.3-2.6-4.4-4.6c-1.1-2-1.6-4.3-1.6-6.8 c0-2.4,0.5-4.6,1.6-6.5c1-1.9,2.5-3.5,4.4-4.6c1.9-1.1,4-1.6,6.4-1.6c2.4,0,4.5,0.5,6.4,1.6c1.8,1.1,3.3,2.6,4.3,4.5 c1,1.9,1.6,4.1,1.6,6.6C368,166.6,367.5,168.8,366.5,170.8z"></path> <path class="st0" d="M425.6,175.8c-1.8,0.8-3.8,1.1-6,1.1c-2.3,0-4.5-0.5-6.4-1.6c-1.9-1.1-3.5-2.6-4.6-4.6 c-1.1-1.9-1.6-4.2-1.6-6.7c0-2.5,0.5-4.7,1.6-6.6c1.1-1.9,2.6-3.4,4.5-4.5c1.9-1.1,4.1-1.6,6.5-1.6c2.2,0,4.1,0.3,5.8,1 c1.7,0.7,3.2,1.7,4.4,3.1l11.1-11.2c-2.8-2.8-5.9-5-9.5-6.5c-3.6-1.5-7.5-2.2-11.9-2.2c-5.7,0-10.8,1.2-15.4,3.7 c-4.6,2.5-8.2,5.9-10.8,10.2c-2.6,4.3-3.9,9.2-3.9,14.7c0,5.4,1.3,10.3,3.9,14.6c2.6,4.3,6.2,7.8,10.7,10.2 c4.6,2.5,9.7,3.7,15.4,3.7c4.5,0,8.5-0.8,12.1-2.3c3.6-1.5,6.8-3.8,9.7-6.8l-11.1-11C428.9,174,427.4,175.1,425.6,175.8z"></path> <polygon class="st0" points="501.8,136.8 482.5,136.8 464.9,161.4 464.9,109.8 447.6,109.8 447.6,191.4 464.9,191.4 464.9,165 482.7,191.4 503,191.4 481.8,162.6 "></polygon> <polygon class="st0" points="547.4,112.1 529.6,112.1 529.6,191.4 543.3,191.4 547.4,191.4 582.6,191.4 582.6,175.9 547.4,175.9 "></polygon> <path class="st0" d="M598.8,110.4c-2.6,0-4.8,0.9-6.6,2.7c-1.8,1.8-2.7,4-2.7,6.7c0,2.6,0.9,4.9,2.7,6.7c1.8,1.9,4,2.8,6.6,2.8 c2.8,0,5-0.9,6.7-2.8c1.7-1.9,2.5-4.1,2.5-6.7c0-2.7-0.8-4.9-2.5-6.7C603.8,111.3,601.5,110.4,598.8,110.4z"></path> <rect x="590.1" y="136.8" class="st0" width="17.3" height="54.6"></rect> <path class="st0" d="M663.5,139.4c-4-2.5-8.6-3.7-13.7-3.7c-3.7,0-7,0.7-10.1,2.1c-1.6,0.7-3,1.6-4.3,2.6v-30.5h-17.3v81.6h17.1 v-4.1c1.3,1.1,2.8,2.1,4.4,2.9c3.1,1.5,6.5,2.3,10.2,2.3c5.1,0,9.7-1.3,13.7-3.8c4-2.5,7.2-5.9,9.5-10.1c2.3-4.2,3.4-9.1,3.4-14.6 c0-5.5-1.2-10.3-3.5-14.6C670.7,145.2,667.5,141.9,663.5,139.4z M657.4,170.8c-1.1,1.9-2.5,3.5-4.4,4.6c-1.8,1.1-3.9,1.6-6.2,1.6 c-2.4,0-4.5-0.5-6.3-1.6c-1.8-1-3.3-2.6-4.3-4.6c-1-2-1.6-4.3-1.6-6.8c0-2.4,0.5-4.6,1.5-6.5c1-1.9,2.5-3.5,4.3-4.6 c1.9-1.1,4-1.6,6.4-1.6c2.3,0,4.4,0.5,6.2,1.6c1.8,1.1,3.3,2.6,4.4,4.6c1.1,1.9,1.6,4.2,1.6,6.6S658.4,168.8,657.4,170.8z"></path> <path class="st0" d="M722.2,136.9c-2-0.8-4.3-1.2-6.9-1.2c-5.9,0-10.6,1.8-14,5.3c0,0,0,0-0.1,0.1v-4.2h-17.3v54.6h17.3v-29.9 c0-3.5,0.8-6.2,2.5-7.9c1.7-1.8,4-2.6,6.9-2.6c1.4,0,2.7,0.2,3.8,0.7s2,1,2.7,1.8l10.2-13C725.9,138.8,724.2,137.7,722.2,136.9z"></path> <path class="st0" d="M767.1,141.4c-1.5-1.4-3.2-2.6-5.1-3.5c-3-1.4-6.3-2.1-9.9-2.1c-5,0-9.5,1.2-13.4,3.7c-3.9,2.4-7,5.8-9.3,10.1 c-2.3,4.3-3.4,9.2-3.4,14.7c0,5.5,1.1,10.3,3.4,14.6c2.3,4.2,5.4,7.6,9.4,10.1c4,2.5,8.4,3.8,13.4,3.8c3.7,0,7.1-0.7,10.1-2.1 c1.9-0.9,3.6-2.1,5-3.5v4.5h17v-54.6h-17V141.4z M755.6,176.9c-2.3,0-4.4-0.5-6.2-1.6c-1.8-1.1-3.3-2.6-4.4-4.6 c-1.1-1.9-1.6-4.2-1.6-6.6s0.5-4.7,1.6-6.6c1.1-1.9,2.5-3.5,4.4-4.6c1.8-1.1,3.9-1.6,6.2-1.6c2.4,0,4.5,0.5,6.4,1.6 c1.9,1.1,3.3,2.6,4.3,4.5c1,1.9,1.5,4.1,1.5,6.6c0,3.8-1.1,6.9-3.3,9.3C762.3,175.7,759.3,176.9,755.6,176.9z"></path> <path class="st0" d="M876.3,136.8l-11,33.1l-10.9-33.1h-18.7l0.8,1.9c-1-0.8-2.1-1.4-3.3-1.9c-2-0.8-4.3-1.2-6.9-1.2 c-5.9,0-10.6,1.8-14,5.3c0,0,0,0-0.1,0.1v-4.2H795v54.6h17.3v-29.9c0-3.5,0.8-6.2,2.5-7.9c1.7-1.8,4-2.6,6.9-2.6 c1.4,0,2.7,0.2,3.8,0.7s2,1,2.7,1.8l9.4-12l18.9,46.2l-12.4,26.8H862l9.7-22.8l23.4-54.8H876.3z"></path> </g> <g> <defs> <rect id="SVGID_1_" x="9.1" y="44.4" width="147.7" height="211.1"></rect> </defs> <clipPath id="SVGID_00000021805837052857076510000001781841322265546905_"> <use xlink:href="#SVGID_1_" style="overflow:visible;"></use> </clipPath> <path style="clip-path:url(#SVGID_00000021805837052857076510000001781841322265546905_);" d="M115.1,88.1 c-2.3-1.7-4.4-3.4-6.5-4.9c-1.6-1.1-3.5-3.1-5-3c-3.8,0.7-7.5,1.6-11.2,2.9c-2.6,0.7-5.2,1.3-7.8,2c-3.6,1-7.2,2-10.8,3 c-2.2,0.6-4.5,1-6.7,1.6c-3.9,1-7.7,2.2-11.5,3.2c-3.5,0.9-6.9,1.7-10.4,2.7c-0.7,0.3-1.2,0.9-1.4,1.6c-0.1,44.2-0.1,88.4,0,132.6 c0,3.6-0.6,6.7-4.3,8.2c-3.1,0.9-6.4-0.8-7.4-4c0-0.1-0.1-0.2-0.1-0.3c-0.2-14.4-0.4-28.8-0.4-43.2c-0.1-32.7-0.1-65.4,0-98.1 c-0.4-3.1,1.8-6,4.9-6.6c6-1.4,12-3.1,18-4.8c5.6-1.5,11.2-3,16.8-4.5c5.9-1.6,11.8-3.2,17.7-4.8c4.3-1.2,8.7-2.6,13.1-3.4 c2.4-0.4,5-0.3,7.3,0.4c1.8,0.9,3.5,2.2,4.9,3.6c2.9,2.2,5.8,4.4,8.7,6.6c2,1.5,4,3,5.9,4.6c1.7,1.3,3.3,2.7,4.6,4.4 c1.6,2.6,0.8,6.1-1.9,7.7c-0.3,0.2-0.7,0.4-1.1,0.5c-3.5,1.2-7.1,1.9-10.6,2.9c-4.4,1.2-8.7,2.5-13,3.8c-2.3,0.6-4.6,1.1-7,1.7 c-4.1,1.1-8.2,2.2-12.3,3.3c-3.5,0.9-7.1,1.7-10.6,2.6c-3.5,0.9-7,2-10.4,2.9c-0.2,0.1-0.4,0.6-0.4,0.9c0,42.1,0,84.2,0,126.4 c0,0.2,0.6,0.7,0.8,0.6c5.1-1.2,10.1-2.5,15.1-3.8c5.5-1.5,10.9-3,16.3-4.5c3.3-0.9,6.7-1.6,10.1-2.5c4.5-1.2,8.9-2.6,13.4-3.8 c4.1-1.1,8.3-2,12.4-3.1c3.4-0.9,6.8-1.9,10.1-2.9c0.2-0.1,0.4-0.8,0.4-1.2c0-37,0-74.1,0-111.1c0-6.4,0.3-12.8-0.2-19.1 c-0.1-1.7-2.2-3.4-3.7-4.7c-2.7-2.3-5.6-4.4-8.5-6.5c-3.3-2.5-6.7-4.9-10-7.5c-2.6-2-5-4.1-7.5-6.1c-1.9-1.5-4-2.8-6-4.3 c-1.4-1.3-2.8-2.5-4.4-3.5c-0.9-0.4-2.4,0.2-3.5,0.5c-3.2,0.8-6.3,1.7-9.4,2.6c-5.5,1.5-11.1,3-16.6,4.5c-3.4,0.9-6.8,1.6-10.1,2.5 c-4.3,1.2-8.5,2.6-12.8,3.8c-4.3,1.1-8.8,2-13.1,3.2c-3.5,0.9-6.9,2-10.3,3c-2.4,0.7-4.9,1.4-7.3,2.1c-0.2,0.1-0.3,0.7-0.3,1.1 c-0.1,4.8-0.2,9.6-0.2,14.4c0,33.4,0.1,66.8,0.2,100.2c0,5.2-0.1,10.5-0.2,15.7c0.2,2.2,0,4.4-0.4,6.5c-0.7,1.6-1.9,2.8-3.5,3.4 c-2.5,1.1-5.5,0.1-6.7-2.3c-0.7-1.4-1.1-3-1.1-4.6c-0.1-46.3-0.1-92.6-0.1-138.9c0-3.1,2.3-5.8,5.4-6.2c3.1-0.7,6.1-1.8,9.2-2.7 c2-0.6,3.9-0.9,5.9-1.5c4.1-1.1,8.1-2.2,12.2-3.3c3.9-1,7.9-1.9,11.8-3c4.3-1.2,8.5-2.6,12.8-3.8c4.1-1.1,8.3-2,12.4-3.1 c3.7-1,7.4-2,11.1-3c3.4-0.9,6.7-1.8,10.1-2.6c2.2-0.7,4.6-1,6.9-0.9c1.8,0.6,3.5,1.5,5,2.8c1.2,0.8,2.4,1.9,3.5,2.8 c2.6,2,5.2,4.1,7.9,6.1c3.5,2.7,7.1,5.5,10.6,8.2c2,1.5,4.1,2.9,6.1,4.4c2.5,1.9,5,3.9,7.5,5.9c2.1,1.4,4,2.9,5.9,4.5 c1.7,1.5,2.9,3.5,3.3,5.7c0.2,47.1,0.2,94.2,0.1,141.3c0,3.5-3,4.8-6.2,5.5c-3.7,0.8-7.4,1.9-11.1,2.9c-3.3,0.9-6.5,1.8-9.8,2.6 c-4.4,1.2-8.7,2.3-13.1,3.5c-2.8,0.8-5.7,1.6-8.5,2.4c-4.1,1.1-8.1,2.3-12.2,3.4c-3,0.8-6,1.5-8.9,2.2c-3.6,0.9-7.1,2-10.6,2.9 c-2.5,0.7-5,1.2-7.5,1.9c-2.5,0.8-5.1,1.5-7.8,2c-3.1,0.5-6.1-1.7-6.5-4.8c-0.1-0.4-0.1-0.9,0-1.4c0-46.5,0-93.1,0-139.6 c-0.1-3.5,2.5-6.4,5.9-6.8c4.9-1.1,9.7-2.7,14.5-4c2-0.6,4.1-0.9,6.1-1.5c3-0.8,6-1.9,9-2.7c2.9-0.8,5.8-1.4,8.6-2.1 c3.7-1,7.4-2,11.1-3C111.3,89.1,113,88.7,115.1,88.1"></path> <path style="clip-path:url(#SVGID_00000021805837052857076510000001781841322265546905_);" d="M119.8,163c3.9,0.6,6.9,3.7,7.3,7.6 c0.8,5.7,0.9,11.5,0.4,17.2c-0.6,4.8-3.5,9-7.8,11.2c-3.4,1.9-7,3.4-10.7,4.6c-4.8,1.4-9.9,2.2-14.8,3.2c-0.2,0-0.8-0.5-0.8-0.8 c0-23.1-0.1-46.2,0.1-69.3c0-0.4,2.2-1,3.4-1.3c4.7-1.2,9.4-2.4,14.1-3.5c3.8-1.7,8.3-1.2,11.7,1.1c1.5,1.4,2.6,3.2,3,5.3 c0.7,4.4,0.9,8.9,0.7,13.4c-0.1,3.7-1.9,7.2-4.9,9.3C120.9,161.8,120.3,162.4,119.8,163 M104.7,184c0,3.4,0,6.8,0,10.2 c0,0.2,0.7,0.7,0.9,0.6c1.6-0.3,3.2-0.8,4.7-1.5c2.1-1.4,5-2.9,5.5-4.9c0.7-4,0.9-8.1,0.5-12.2c0-2.5-0.7-5-3.9-4.9 c-1.8,0.3-3.5,0.7-5.3,1.2c-1.8,0.3-2.8,0.7-2.7,2.9C104.9,178.2,104.7,181.1,104.7,184 M104.7,153.6c0,2.6,0,5.2,0,7.8 c0,0.5,0.1,1,0.2,1.5c0.6-0.2,1.2-0.3,1.9-0.5c0.2-0.1,0.4-0.2,0.6-0.2c3.3-0.7,6.5-2.1,7.3-5.5c0.6-3.4,0.8-6.9,0.6-10.4 c0-1.2-1-3.4-1.7-3.4c-2.3,0-4.6,0.3-6.8,0.7c-1.8,0.2-2.2,1.3-2.1,3C104.8,148.9,104.7,151.2,104.7,153.6"></path> </g> </svg> 