<?xml version="1.0" encoding="utf-8"?>
<!-- Generator: Adobe Illustrator 26.2.1, SVG Export Plug-In . SVG Version: 6.00 Build 0)  -->
<svg version="1.1" id="Layer_1" xmlns="http://www.w3.org/2000/svg" xmlns:xlink="http://www.w3.org/1999/xlink" x="0px" y="0px"
	 viewBox="0 0 106.5 24" style="enable-background:new 0 0 106.5 24;" xml:space="preserve">
<path d="M12.8,3c-5,0-9,4-9,9s4,9,9,9s9-4,9-9S17.8,3,12.8,3z M12.8,4.5c4.1,0,7.5,3.4,7.5,7.5v0.1c-1.4-0.8-3.3-1.7-3.4-1.8
	c-0.2-0.1-0.5-0.1-0.8,0.1l-2.9,2.1l-3.4-1.2c-0.2-0.1-0.4,0-0.6,0.1l-3.7,2.2c-0.1-0.5-0.2-1-0.2-1.5C5.4,7.9,8.7,4.5,12.8,4.5z
	 M12.8,19.5c-3.1,0-5.7-1.9-6.9-4.5l3.7-2.2l3.5,1.2c0.2,0.1,0.5,0,0.7-0.1l2.9-2.1c0.8,0.4,2.5,1.2,3.5,1.9
	C19.4,17,16.4,19.5,12.8,19.5z"/>
<g>
	<g>
		<path d="M28.7,6.6v10.9H27V6.6H28.7z M32.9,13h-5.8v-1.5h5.8V13z M33.7,8.2h-6.5V6.6h6.5V8.2z"/>
		<path d="M39.6,10.1v1.5H39c-0.7,0-1.2,0.2-1.6,0.6c-0.4,0.4-0.6,0.9-0.6,1.6v3.7h-1.6v-7.4h1.5l0.1,1.5h-0.1
			c0.1-0.5,0.3-0.9,0.7-1.2s0.9-0.5,1.4-0.5c0.1,0,0.2,0,0.4,0C39.3,10,39.5,10.1,39.6,10.1z"/>
		<path d="M43.1,17.7c-0.8,0-1.4-0.2-1.8-0.6c-0.4-0.4-0.7-1-0.7-1.6c0-0.7,0.2-1.2,0.7-1.6s1.1-0.6,2-0.7l2.3-0.2v-0.2
			c0-0.4-0.1-0.7-0.2-0.9c-0.1-0.2-0.3-0.4-0.6-0.5c-0.2-0.1-0.5-0.1-0.8-0.1c-0.6,0-1,0.1-1.3,0.3c-0.3,0.2-0.5,0.6-0.5,1h-1.4
			c0-0.5,0.1-1,0.4-1.4c0.3-0.4,0.6-0.7,1.1-0.9c0.5-0.2,1.1-0.3,1.7-0.3c0.6,0,1.2,0.1,1.7,0.3s0.8,0.6,1.1,1
			c0.3,0.5,0.4,1,0.4,1.7v4.5h-1.4l-0.1-1.1c-0.2,0.4-0.5,0.7-0.9,1C44.2,17.6,43.7,17.7,43.1,17.7z M43.6,16.5
			c0.6,0,1.1-0.2,1.5-0.5c0.4-0.4,0.5-0.9,0.5-1.5V14l-1.7,0.1c-0.6,0.1-1,0.2-1.3,0.4s-0.4,0.5-0.4,0.8c0,0.4,0.1,0.6,0.4,0.8
			C42.8,16.4,43.1,16.5,43.6,16.5z"/>
		<path d="M50.6,17.5H49v-7.4h1.5l0.2,1.3l-0.2-0.2c0.1-0.4,0.4-0.7,0.8-1c0.4-0.3,0.9-0.4,1.5-0.4c0.7,0,1.2,0.2,1.6,0.5
			c0.4,0.3,0.7,0.8,0.9,1.4H55c0.1-0.6,0.4-1,0.8-1.4c0.5-0.3,1-0.5,1.7-0.5c0.9,0,1.5,0.2,2,0.7c0.5,0.5,0.7,1.2,0.7,2v4.8h-1.6
			v-4.4c0-0.5-0.1-1-0.4-1.3c-0.3-0.3-0.6-0.4-1.1-0.4c-0.3,0-0.6,0.1-0.9,0.2c-0.2,0.1-0.4,0.3-0.6,0.6c-0.1,0.3-0.2,0.6-0.2,1v4.3
			h-1.6v-4.4c0-0.5-0.1-1-0.4-1.3s-0.6-0.4-1.1-0.4c-0.3,0-0.6,0.1-0.9,0.2S51,12,50.8,12.2s-0.2,0.6-0.2,1V17.5z"/>
		<path d="M65.4,17.7c-0.7,0-1.4-0.2-1.9-0.5c-0.6-0.3-1-0.8-1.3-1.4c-0.3-0.6-0.5-1.3-0.5-2c0-0.8,0.2-1.4,0.5-2s0.7-1,1.3-1.4
			s1.2-0.5,1.9-0.5s1.3,0.2,1.9,0.5c0.5,0.3,0.9,0.7,1.2,1.3c0.3,0.6,0.4,1.2,0.4,2v0.5l-6.3,0l0-1h4.7c0-0.6-0.2-1-0.5-1.4
			c-0.3-0.3-0.8-0.5-1.4-0.5c-0.5,0-0.8,0.1-1.1,0.3s-0.6,0.5-0.7,0.8s-0.2,0.8-0.2,1.4c0,0.8,0.2,1.5,0.6,1.9
			c0.4,0.4,0.9,0.7,1.6,0.7c0.5,0,1-0.1,1.3-0.3c0.3-0.2,0.6-0.5,0.7-0.9h1.5c-0.2,0.8-0.6,1.4-1.2,1.9
			C67.1,17.5,66.3,17.7,65.4,17.7z"/>
		<path d="M72,17.5l-2.4-7.4h1.7l1.1,3.5c0.1,0.3,0.2,0.6,0.2,0.9c0.1,0.3,0.1,0.6,0.2,1c0-0.2,0.1-0.4,0.1-0.6
			c0-0.2,0.1-0.4,0.2-0.6c0.1-0.2,0.1-0.4,0.2-0.6l1.1-3.5h1.7l1.1,3.5c0,0.1,0.1,0.2,0.1,0.3c0,0.1,0.1,0.3,0.1,0.5
			c0,0.2,0.1,0.3,0.1,0.5c0,0.2,0.1,0.3,0.1,0.5c0-0.2,0.1-0.4,0.1-0.6c0-0.2,0.1-0.4,0.2-0.6c0.1-0.2,0.1-0.4,0.2-0.6l1.1-3.5h1.7
			l-2.5,7.4h-1.5l-1.2-3.6c-0.1-0.4-0.2-0.8-0.3-1.1c-0.1-0.3-0.1-0.6-0.2-0.8c0,0.2-0.1,0.4-0.2,0.7C75,13,74.9,13.4,74.7,14
			l-1.2,3.5H72z"/>
		<path d="M81.6,13.8c0-0.8,0.2-1.4,0.5-2s0.8-1,1.4-1.4s1.3-0.5,2-0.5s1.4,0.2,2,0.5s1,0.8,1.4,1.4s0.5,1.3,0.5,2
			c0,0.8-0.2,1.4-0.5,2s-0.8,1-1.4,1.4s-1.2,0.5-2,0.5s-1.4-0.2-2-0.5s-1.1-0.8-1.4-1.4S81.6,14.6,81.6,13.8z M83.3,13.8
			c0,0.5,0.1,0.9,0.3,1.3c0.2,0.4,0.5,0.7,0.8,0.9s0.7,0.3,1.2,0.3c0.4,0,0.8-0.1,1.2-0.3s0.6-0.5,0.8-0.9c0.2-0.4,0.3-0.8,0.3-1.3
			c0-0.5-0.1-0.9-0.3-1.3c-0.2-0.4-0.5-0.6-0.8-0.8s-0.7-0.3-1.2-0.3c-0.5,0-0.8,0.1-1.2,0.3s-0.6,0.5-0.8,0.8
			C83.4,12.9,83.3,13.3,83.3,13.8z"/>
		<path d="M95.3,10.1v1.5h-0.6c-0.7,0-1.2,0.2-1.6,0.6c-0.4,0.4-0.6,0.9-0.6,1.6v3.7h-1.6v-7.4h1.5l0.1,1.5h-0.1
			c0.1-0.5,0.3-0.9,0.7-1.2c0.4-0.3,0.8-0.5,1.4-0.5c0.1,0,0.2,0,0.4,0C95.1,10,95.2,10.1,95.3,10.1z"/>
		<path d="M98.3,17.5h-1.6V6.4h1.6v7l3.1-3.3h2l-2.8,2.9l2.8,4.4h-1.9l-2-3.3l-1.2,1.2V17.5z"/>
	</g>
</g>
</svg>
