<?xml version="1.0" encoding="utf-8"?>
<!-- Generator: Adobe Illustrator 26.2.1, SVG Export Plug-In . SVG Version: 6.00 Build 0)  -->
<svg version="1.1" id="Layer_1" xmlns="http://www.w3.org/2000/svg" xmlns:xlink="http://www.w3.org/1999/xlink" x="0px" y="0px"
	 viewBox="0 0 632 250" style="enable-background:new 0 0 632 250;" xml:space="preserve">
<g>
	<path d="M195.7,85.2c15.9,0,30.1,11.6,30.1,30.5c0,18.8-14.2,30.5-30.1,30.5c-15.8,0-30-11.6-30-30.5
		C165.6,96.8,179.8,85.2,195.7,85.2z M195.7,135.1c9.1,0,18.3-6.3,18.3-19.5s-9.2-19.5-18.3-19.5c-9,0-18.2,6.3-18.2,19.5
		S186.7,135.1,195.7,135.1z"/>
	<path d="M233.5,160.6v-56.3h10.6v5c1.8-3.1,6.4-5.9,12.5-5.9c11.9,0,18.7,9.1,18.7,21.1c0,12.3-7.7,21.4-19.2,21.4
		c-5.6,0-9.7-2.2-11.7-5v19.6h-10.9V160.6z M254.5,113.3c-5.6,0-10.2,4.2-10.2,11.4s4.5,11.5,10.2,11.5c5.6,0,10.1-4.2,10.1-11.5
		C264.5,117.5,260.1,113.3,254.5,113.3z"/>
	<path d="M296.3,104.3h8.2v9.7h-8.2v17c0,3.6,1.7,4.7,4.8,4.7c1.3,0,2.8-0.2,3.4-0.3v9.1c-1,0.4-3,1-6.2,1
		c-7.9,0-12.9-4.7-12.9-12.5v-18.9H278v-9.7h2.1c4.3,0,6.3-2.8,6.3-6.4v-5.7h9.9V104.3z"/>
	<path d="M316.8,84.2c3.8,0,6.8,3.1,6.8,6.9c0,3.6-3,6.7-6.8,6.7c-3.7,0-6.8-3.1-6.8-6.7C310,87.3,313.1,84.2,316.8,84.2z
		 M311.3,145v-40.6h11V145H311.3z"/>
	<path d="M331.7,145v-40.6h10.5v5c2.2-4,7.4-6.1,11.9-6.1c5.5,0,10,2.4,12.1,6.8c3.2-5,7.5-6.8,12.9-6.8c7.5,0,14.7,4.5,14.7,15.4
		V145H383v-24.1c0-4.4-2.1-7.7-7.2-7.7c-4.7,0-7.5,3.6-7.5,8V145h-10.9v-24.1c0-4.4-2.2-7.7-7.2-7.7c-4.8,0-7.6,3.5-7.6,8V145H331.7
		z"/>
	<path d="M408.2,84.2c3.8,0,6.8,3.1,6.8,6.9c0,3.6-3,6.7-6.8,6.7c-3.7,0-6.8-3.1-6.8-6.7C401.4,87.3,404.4,84.2,408.2,84.2z
		 M402.7,145v-40.6h11V145H402.7z"/>
	<path d="M420.4,145v-9.7l19.2-21.5h-18.7v-9.5h32.8v9.2l-19.8,21.9H454v9.6H420.4z"/>
	<path d="M497.2,133.3c-2.1,7-8.5,12.9-18.5,12.9c-11.1,0-21-8-21-21.7c0-13,9.6-21.4,20-21.4c12.5,0,20.1,8,20.1,21.1
		c0,1.6-0.2,3.2-0.2,3.4h-29.1c0.2,5.4,4.8,9.2,10.2,9.2c5.1,0,7.9-2.6,9.2-6.2L497.2,133.3z M486.9,120c-0.2-4-2.8-8-9.1-8
		c-5.7,0-8.8,4.3-9.1,8H486.9z"/>
	<path d="M568.5,86.4h11.6L564,145h-11.7l-13.4-41.7L525.5,145h-11.9l-16.3-58.5h12.1l10.7,40.3l13-40.3h11.8l13,40.4L568.5,86.4z"
		/>
	<path d="M597.2,122.9v22h-11.4V86.4h21.9c11.6,0,19.2,7.7,19.2,18.2c0,10.6-7.7,18.2-19.2,18.2L597.2,122.9L597.2,122.9z
		 M606.3,113.1c5.7,0,9.2-3.3,9.2-8.3c0-5.2-3.5-8.4-9.2-8.4h-9v16.8L606.3,113.1L606.3,113.1z"/>
</g>
<path d="M69.7,57.3c-49.5,0-61.9,12.4-61.9,61.9s12.4,61.9,61.9,61.9s61.9-12.4,61.9-61.9S119.2,57.3,69.7,57.3z M109,158.5
	c-5.6,5.6-17.8,8.2-39.3,8.2s-33.7-2.5-39.3-8.2c-5.6-5.6-8.2-17.8-8.2-39.3c0-21.6,2.5-33.7,8.2-39.3c5.6-5.6,17.8-8.2,39.3-8.2
	c21.6,0,33.7,2.5,39.3,8.2c5.6,5.6,8.2,17.8,8.2,39.3S114.6,152.9,109,158.5z"/>
<rect x="9.2" y="126.7" transform="matrix(0.7071 -0.7071 0.7071 0.7071 -84.6365 63.4791)" width="50.2" height="14.4"/>
<rect x="50" y="109.9" transform="matrix(0.7071 -0.7071 0.7071 0.7071 -55.9111 99.255)" width="83.8" height="14.4"/>
<rect x="50" y="109.8" transform="matrix(0.7071 -0.7071 0.7071 0.7071 -76.1629 78.9336)" width="14.4" height="43.3"/>
</svg>
