<?xml version="1.0" encoding="utf-8"?>
<!-- Generator: Adobe Illustrator 26.2.1, SVG Export Plug-In . SVG Version: 6.00 Build 0)  -->
<svg version="1.1" id="Layer_1" xmlns="http://www.w3.org/2000/svg" xmlns:xlink="http://www.w3.org/1999/xlink" x="0px" y="0px"
	 viewBox="0 0 1279 250" style="enable-background:new 0 0 1279 250;" xml:space="preserve">
<path d="M220.8,90c-6.4,6.4-12.7,12.7-19.1,19.1c-3.8,3.7-6.4,3.7-10.2,0c-7.3-7.3-14.6-14.6-21.9-21.9c-3.7-3.7-3.6-6.3,0.2-10.2
	c12.8-12.9,25.6-25.7,38.5-38.5c3.8-3.8,6.4-3.8,10.2,0c7.2,7.1,14.4,14.3,21.6,21.5c4,4,4,6.6,0.1,10.5
	C233.8,77.1,227.3,83.6,220.8,90z"/>
<path d="M110.5,200.4c-6.4,6.4-12.7,12.7-19.1,19.1c-3.8,3.7-6.4,3.7-10.2,0c-7.3-7.3-14.6-14.6-21.9-21.9
	c-3.7-3.7-3.6-6.3,0.2-10.2c12.8-12.9,25.6-25.7,38.5-38.5c3.8-3.8,6.4-3.8,10.2,0c7.2,7.1,14.4,14.3,21.6,21.5c4,4,4,6.6,0.1,10.5
	C123.5,187.4,117,193.9,110.5,200.4z"/>
<path d="M99.1,133.5c-6.2,6.2-12.4,12.5-18.7,18.7c-4.2,4.1-6.9,4.2-11,0.1c-7.2-7.1-14.4-14.3-21.5-21.5c-3.8-3.9-3.9-6.8,0-10.7
	C60.5,107.4,73.2,94.7,85.9,82c3.9-3.9,6.8-3.9,10.7,0c7.3,7.3,14.6,14.5,21.9,21.9c3.6,3.7,3.7,6.5,0,10.3
	C112,120.6,105.5,127.1,99.1,133.5z"/>
<path d="M145.3,180c6.4-6.4,12.7-12.8,19.1-19.1c4.2-4.2,6.9-4.2,11-0.1c7.2,7.2,14.4,14.3,21.6,21.6c3.6,3.7,3.8,6.7,0.2,10.3
	c-12.8,12.9-25.6,25.7-38.5,38.5c-3.8,3.8-6.8,3.6-10.7-0.3c-7-6.9-13.9-13.9-20.9-20.8c-4.7-4.7-4.7-7.2,0.2-12.1
	C133.3,192,139.3,186,145.3,180z"/>
<path d="M200.9,124.3c6.1-6.1,12.2-12.3,18.4-18.4c4.4-4.4,7.1-4.4,11.4-0.2c7.1,7,14.2,14.1,21.2,21.2c3.8,3.9,4,6.9,0.2,10.8
	c-12.7,12.8-25.4,25.5-38.2,38.2c-3.9,3.9-6.9,3.8-10.7,0c-7.2-7.2-14.4-14.3-21.6-21.6c-4.1-4.1-4-6.7,0.1-11
	C188.2,137,194.6,130.7,200.9,124.3z"/>
<path d="M121.7,45.1c6.1-6.1,12.2-12.3,18.4-18.4c4.4-4.4,7.1-4.4,11.4-0.2c7.1,7,14.2,14.1,21.2,21.2c3.8,3.9,4,6.9,0.2,10.8
	c-12.7,12.8-25.4,25.5-38.2,38.2c-3.9,3.9-6.9,3.8-10.7,0c-7.2-7.2-14.4-14.3-21.6-21.6c-4.1-4.1-4-6.7,0.1-11
	C109,57.8,115.4,51.5,121.7,45.1z"/>
<path d="M165.7,145.2c-6.4,6.4-12.7,12.7-19.1,19.1c-3.8,3.7-6.4,3.7-10.2,0c-7.3-7.3-14.6-14.6-21.9-21.9
	c-3.7-3.7-3.6-6.3,0.2-10.2c12.8-12.9,25.6-25.7,38.5-38.5c3.8-3.8,6.4-3.8,10.2,0c7.2,7.1,14.4,14.3,21.6,21.5c4,4,4,6.6,0.1,10.5
	C178.7,132.3,172.2,138.7,165.7,145.2z"/>
<g>
	<g>
		<path d="M394.8,87.8h-31.3l4.8-8v98.6h-15.2V79.8l5.2,8h-31.7V75.2h68.2V87.8z"/>
		<path d="M409.9,178.5V69.1h15.2v109.4H409.9z M462.9,178.5v-27.2c0-1.2,0-2.7,0-4.4s0-3.5,0-5.3c0-1.8,0-3.3,0-4.5
			c0-6.7-1.4-11.7-4.1-15.2c-2.7-3.5-7.2-5.2-13.4-5.2c-4.2,0-7.7,0.8-10.8,2.5c-3,1.6-5.4,3.9-7,6.7c-1.7,2.8-2.5,6.1-2.5,9.7
			l-7.1-2.9c0-5.6,1.4-10.7,4.1-15.2c2.7-4.5,6.5-8,11.3-10.6c4.8-2.6,10.3-3.9,16.4-3.9c9,0,15.9,2.7,20.9,8
			c5,5.3,7.5,12.8,7.5,22.3c0,2.4,0,5.3,0,8.6c0,3.3,0,6.9,0,10.7v25.9H462.9z"/>
		<path d="M502.7,146.6v-11.8h54.7l-2.1,3.5c0-0.3,0-0.6,0-0.9c0-0.3,0-0.6,0-0.8c0-3.8-0.8-7.3-2.5-10.5c-1.6-3.2-4.1-5.8-7.3-7.7
			c-3.2-1.9-7.3-2.9-12.1-2.9s-9.1,1-12.8,3.1c-3.7,2.1-6.5,5-8.5,8.8c-2,3.8-3,8.4-3,13.7c0,5.4,1,10.1,2.9,14s4.8,6.9,8.5,9
			c3.7,2.1,8.1,3.2,13.2,3.2c3.6,0,6.7-0.4,9.3-1.1c2.6-0.7,4.8-1.7,6.5-2.9c1.7-1.2,3-2.5,3.9-4c0.9-1.4,1.4-2.8,1.5-4.2h15.1
			c-0.3,3-1.3,6-3,9c-1.7,3-4.1,5.6-7.2,8c-3.1,2.4-6.9,4.3-11.3,5.7c-4.5,1.4-9.6,2.1-15.4,2.1c-7.7,0-14.5-1.6-20.4-4.9
			c-5.8-3.3-10.4-7.8-13.7-13.6c-3.3-5.8-4.9-12.5-4.9-20c0-7.7,1.7-14.4,5-20.2c3.3-5.8,7.9-10.3,13.8-13.5
			c5.9-3.2,12.6-4.9,20.2-4.9c7.7,0,14.5,1.6,20.1,4.9c5.7,3.3,10,7.8,13.1,13.5c3.1,5.7,4.6,12.3,4.6,19.8c0,0.9,0,1.9-0.1,3.1
			c0,1.2-0.1,2-0.2,2.4H502.7z"/>
		<path d="M588,178.5v-74.3h15.2v74.3H588z M634,178.5V147c0-2.8,0-5.3,0-7.4c0-2.1,0-3.8,0-5.3c0-1.8-0.1-3.8-0.4-5.8
			c-0.3-2.1-0.8-4-1.7-5.8c-0.9-1.8-2.2-3.3-4-4.4s-4.3-1.7-7.5-1.7s-5.9,0.6-8,1.9c-2.2,1.3-4,2.9-5.3,5c-1.4,2.1-2.3,4.4-2.9,6.9
			c-0.6,2.5-0.9,5.1-0.9,7.7l-6.4-3.5c0-5.8,1.2-11.1,3.5-15.9c2.3-4.8,5.6-8.6,9.8-11.5c4.2-2.9,9.2-4.3,14.9-4.3
			c5.8,0,10.5,1.2,14,3.6c3.5,2.4,6.1,5.7,7.7,9.8c1.6,4.1,2.4,8.8,2.4,14c0,1.9,0,4.4,0,7.5s0,6.7,0,10.7v29.9H634z M679.8,178.5
			V147c0-3.1,0-5.7,0-7.7c0-2.1,0-3.8,0-5.2c0-1.9-0.1-3.9-0.3-5.9c-0.2-2-0.8-3.9-1.7-5.6c-0.9-1.7-2.3-3.1-4.1-4.2
			c-1.8-1.1-4.4-1.6-7.7-1.6c-3.2,0-5.9,0.6-8.1,1.9c-2.2,1.2-3.9,2.9-5.2,4.9c-1.3,2-2.2,4.3-2.8,6.7c-0.6,2.4-0.8,4.8-0.8,7.2
			l-6.4-3.4c0-5.6,1.1-10.8,3.4-15.5c2.3-4.7,5.5-8.5,9.7-11.3c4.2-2.8,9.1-4.2,14.9-4.2c5.6,0,10.2,1.1,13.8,3.4
			c3.6,2.2,6.3,5.3,8,9.3c1.7,4,2.6,8.6,2.6,13.8c0,2,0,4.5,0,7.6c0,3,0,6.6,0,10.6v30.9H679.8z"/>
		<path d="M719.5,146.6v-11.8h54.7l-2.1,3.5c0-0.3,0-0.6,0-0.9c0-0.3,0-0.6,0-0.8c0-3.8-0.8-7.3-2.5-10.5c-1.6-3.2-4.1-5.8-7.3-7.7
			c-3.2-1.9-7.3-2.9-12.1-2.9s-9.1,1-12.8,3.1c-3.7,2.1-6.5,5-8.5,8.8c-2,3.8-3,8.4-3,13.7c0,5.4,1,10.1,2.9,14s4.8,6.9,8.5,9
			c3.7,2.1,8.1,3.2,13.2,3.2c3.6,0,6.7-0.4,9.3-1.1c2.6-0.7,4.8-1.7,6.5-2.9c1.7-1.2,3-2.5,3.9-4c0.9-1.4,1.4-2.8,1.5-4.2h15.1
			c-0.3,3-1.3,6-3,9c-1.7,3-4.1,5.6-7.2,8c-3.1,2.4-6.9,4.3-11.3,5.7c-4.5,1.4-9.6,2.1-15.4,2.1c-7.7,0-14.5-1.6-20.4-4.9
			c-5.8-3.3-10.4-7.8-13.7-13.6c-3.3-5.8-4.9-12.5-4.9-20c0-7.7,1.7-14.4,5-20.2c3.3-5.8,7.9-10.3,13.8-13.5
			c5.9-3.2,12.6-4.9,20.2-4.9c7.7,0,14.5,1.6,20.1,4.9c5.7,3.3,10,7.8,13.1,13.5c3.1,5.7,4.6,12.3,4.6,19.8c0,0.9,0,1.9-0.1,3.1
			c0,1.2-0.1,2-0.2,2.4H719.5z"/>
		<path d="M840.8,75.2c6.7,0,12.3,0.9,16.8,2.8c4.5,1.8,7.9,4.6,10.3,8.3c2.3,3.7,3.5,8.2,3.5,13.7c0,5.2-1.1,9.6-3.2,13.2
			c-2.1,3.6-4.8,6.3-8.1,8.2c-3.3,1.9-6.7,2.9-10.1,3.1c3.7,0.1,7.4,1,11.1,2.6c3.7,1.7,6.7,4.3,9.1,8s3.6,8.6,3.6,14.7
			c0,5.9-1.2,11-3.5,15.3c-2.4,4.3-6,7.6-10.9,10c-4.9,2.3-11.2,3.5-18.9,3.5h-36V75.2H840.8z M819,123.4l-5.1-4.8h21
			c6.8,0,12.1-1.4,15.8-4.2c3.7-2.8,5.5-6.8,5.5-12c0-3.5-0.8-6.4-2.3-8.5c-1.5-2.1-3.7-3.7-6.6-4.6c-2.9-1-6.3-1.4-10.2-1.4h-24.9
			l6.9-8V123.4z M837.4,165.9c6.5,0,11.6-1.5,15.3-4.4c3.7-2.9,5.5-7.1,5.5-12.6c0-3.3-0.6-6.1-1.8-8.4c-1.2-2.3-2.8-4.1-4.9-5.4
			c-2.1-1.4-4.4-2.3-7.1-3c-2.7-0.6-5.6-0.9-8.7-0.9h-21.8l5.1-4.8v47.5l-6.9-8H837.4z"/>
		<path d="M907.5,69.1v109.4h-15V69.1H907.5z"/>
		<path d="M963.7,179.9c-7.7,0-14.4-1.7-20.3-5c-5.9-3.3-10.4-7.9-13.7-13.7s-4.9-12.4-4.9-19.9c0-7.5,1.6-14.2,4.9-19.9
			c3.3-5.8,7.9-10.3,13.7-13.5c5.9-3.2,12.6-4.9,20.3-4.9s14.4,1.6,20.3,4.9c5.9,3.2,10.4,7.7,13.7,13.5c3.3,5.8,4.9,12.4,4.9,19.9
			c0,7.5-1.6,14.1-4.9,19.9s-7.9,10.4-13.7,13.7C978.1,178.2,971.3,179.9,963.7,179.9z M963.7,166.8c4.7,0,8.8-1,12.3-3.2
			c3.5-2.1,6.3-5.1,8.3-8.9c2-3.9,3-8.3,3-13.5c0-5.2-1-9.7-3-13.4c-2-3.8-4.8-6.7-8.3-8.7c-3.5-2.1-7.7-3.1-12.3-3.1
			c-4.6,0-8.7,1-12.3,3.1c-3.6,2.1-6.4,5-8.4,8.7c-2,3.8-3,8.3-3,13.4c0,5.1,1,9.6,3,13.5c2,3.8,4.8,6.8,8.4,8.9
			C955,165.8,959.1,166.8,963.7,166.8z"/>
		<path d="M1055.5,179.9c-7.5,0-14.2-1.6-20.1-4.7c-5.9-3.2-10.5-7.6-13.9-13.5c-3.4-5.8-5.1-12.7-5.1-20.6s1.7-14.7,5.1-20.4
			c3.4-5.7,8-10.1,13.9-13.2s12.6-4.6,20.1-4.6c5.6,0,10.7,0.9,15,2.6c4.4,1.7,8.1,4,11.1,6.8c3,2.8,5.3,5.9,6.9,9.2
			c1.6,3.4,2.4,6.7,2.4,10.1c0,0,0,0.1,0,0.2c0,0.1,0,0.2,0,0.3H1076c0-0.2,0-0.5-0.1-0.8c0-0.3-0.1-0.6-0.1-0.9
			c-0.4-2.8-1.4-5.2-3.2-7.4c-1.8-2.1-4.1-3.9-7-5.1c-2.9-1.3-6.3-1.9-10.2-1.9c-4.2,0-8.2,0.9-11.7,2.8c-3.6,1.8-6.4,4.6-8.6,8.4
			s-3.2,8.4-3.2,14c0,5.6,1.1,10.3,3.2,14.1c2.1,3.8,5,6.7,8.5,8.6c3.6,2,7.5,2.9,11.8,2.9c4.6,0,8.4-0.7,11.3-2.1
			c2.9-1.4,5.2-3.3,6.6-5.7c1.5-2.4,2.4-5,2.6-7.8h15.1c0,3.4-0.8,6.8-2.3,10.2c-1.5,3.4-3.8,6.5-6.8,9.3c-3,2.8-6.7,5-11.1,6.7
			C1066.4,179.1,1061.3,179.9,1055.5,179.9z"/>
		<path d="M1107.8,178.5V69.1h14.4v65.6l-3.7-1.8l33.2-28.8h19.1l-36,31.8l3.6-6.8l32.3,49.3h-16.2l-26-41.1l3.4,1l-11.7,10.4
			l1.9-6.9v36.6H1107.8z"/>
		<path d="M1211.8,179.9c-4.4,0-8.6-0.5-12.5-1.5s-7.4-2.4-10.3-4.3c-3-1.9-5.3-4.2-6.9-7c-1.7-2.8-2.5-6-2.5-9.7c0-0.3,0-0.7,0-1
			s0-0.6,0-0.9h15.1c0,0.2,0,0.4,0,0.6s0,0.4,0,0.8c0,3.4,1.6,6,4.7,7.7c3.1,1.8,7.4,2.6,12.8,2.6c3.2,0,6.1-0.3,8.7-1
			c2.6-0.7,4.7-1.7,6.3-3c1.6-1.4,2.3-3.1,2.3-5.2c0-3.4-1.7-5.8-5-7.3c-3.3-1.4-8.4-2.7-15.2-3.9c-3.7-0.7-7.2-1.5-10.7-2.5
			c-3.4-1-6.5-2.4-9.2-4.1c-2.7-1.7-4.9-3.8-6.5-6.4c-1.6-2.5-2.4-5.6-2.4-9.2c0-4.7,1.4-8.6,4.2-11.9c2.8-3.3,6.6-5.7,11.3-7.4
			c4.8-1.7,10-2.5,15.8-2.5c5.6,0,10.7,0.9,15.4,2.7c4.7,1.8,8.6,4.4,11.4,7.8c2.9,3.4,4.3,7.5,4.3,12.4c0,0.2,0,0.4,0,0.6
			s0,0.4,0,0.6h-15c0-0.2,0-0.3,0-0.5c0-0.1,0-0.3,0-0.5c0-2.4-0.8-4.4-2.3-5.9s-3.5-2.7-6-3.5c-2.4-0.8-5.1-1.2-7.8-1.2
			c-2.5,0-5.1,0.3-7.6,0.8c-2.5,0.5-4.7,1.4-6.3,2.7c-1.7,1.3-2.5,3-2.5,5.2c0,2.2,0.8,4,2.5,5.4c1.6,1.3,3.9,2.4,6.9,3.3
			c3,0.9,6.5,1.6,10.4,2.3c3.6,0.7,7.2,1.5,10.6,2.5c3.5,1,6.6,2.3,9.3,4c2.8,1.6,5,3.7,6.7,6.3c1.7,2.6,2.5,5.7,2.5,9.5
			c0,3.9-0.9,7.2-2.7,10c-1.8,2.8-4.2,5.1-7.2,7c-3.1,1.8-6.5,3.2-10.4,4.1C1220.2,179.5,1216.1,179.9,1211.8,179.9z"/>
	</g>
</g>
</svg>
