<?xml version="1.0" encoding="UTF-8"?> <svg xmlns="http://www.w3.org/2000/svg" xmlns:xlink="http://www.w3.org/1999/xlink" version="1.1" id="Layer_1" x="0px" y="0px" viewBox="0 0 900 300" style="enable-background:new 0 0 900 300;" xml:space="preserve"> <style type="text/css"> .st0{opacity:0.88;fill-rule:evenodd;clip-rule:evenodd;enable-background:new ;} .st1{enable-background:new ;} .st2{fill:#111111;} </style> <path id="icon" class="st0" d="M87,84.4l-63.1,42.2L84.6,168l61.4-41.7L87,84.4z M43.4,161.1l-19.6,13.2l60.7,41.5l61.5-41.8 L127,160.5l-32.1,22c-6.1,4.1-14.1,4.1-20.3,0L43.4,161.1L43.4,161.1z M84.8,233.3c-3.6,0-7.1-1.1-10.1-3.1L14,188.6 c-7.9-5.4-10-16.3-4.5-24.2c1.2-1.8,2.8-3.4,4.7-4.6l13.8-9.3L14,140.9c-7.9-5.5-10-16.3-4.5-24.3c1.2-1.8,2.8-3.4,4.6-4.6 l62.6-42.2c6.2-4.1,14.3-4,20.4,0.3l59.1,42c7.8,5.6,9.7,16.4,4.1,24.3c-1.2,1.7-2.7,3.1-4.3,4.3l-13.6,9.3l13.8,9.8 c7.9,5.6,9.7,16.4,4.1,24.3c-1.2,1.7-2.7,3.1-4.4,4.3l-61,41.8C92,232.2,88.5,233.3,84.8,233.3L84.8,233.3z"></path> <g class="st1"> <path class="st2" d="M206,113.9H223l12.1,51h0.6l13.4-51h14.5L277,165h0.6l12.1-51.1h16.9l-21,73.3h-15.1l-14-48h-0.6l-13.9,48H227 L206,113.9z"></path> <path class="st2" d="M314.1,117.5c0-4.2,3.7-7.7,8.2-7.7c4.5,0,8.3,3.5,8.3,7.7c0,4.3-3.7,7.7-8.3,7.7 C317.9,125.2,314.1,121.7,314.1,117.5z M314.7,132.3H330v55h-15.3V132.3z"></path> <path class="st2" d="M342.1,132.3h14.8v9.6h0.6c2-6.8,7.1-10.4,13.2-10.4c1.5,0,3.4,0.2,4.8,0.5v13.5c-1.4-0.5-4.3-0.8-6.4-0.8 c-6.7,0-11.7,4.7-11.7,11.4v31.1h-15.3V132.3z"></path> <path class="st2" d="M378.6,160c0-17,10.5-28.5,26.7-28.5c14.5,0,25.9,9.2,25.9,27.9v4.2h-37.5v0c0,8.2,4.8,13.2,12.5,13.2 c5.1,0,9-2.2,10.6-6.4l14.1,0.9c-2.1,10.2-11.3,16.8-24.9,16.8C388.9,188.4,378.6,177.5,378.6,160z M416.7,154.2 c0-6.6-4.6-11.3-11.2-11.3c-6.8,0-11.5,5-11.9,11.3H416.7z"></path> <path class="st2" d="M470.7,143.7h-10.9v43.5h-15.3v-43.5h-7.8v-11.5h7.8v-4c0-12,7.7-17.8,18-17.8c4.7,0,8.9,0.9,10.8,1.5 l-2.7,11.5c-1.2-0.4-3.1-0.8-4.9-0.8c-4.5,0-6,2.2-6,5.9v3.7h10.9V143.7z"></path> <path class="st2" d="M480,132.3h14.8v9.6h0.6c2-6.8,7.1-10.4,13.2-10.4c1.5,0,3.4,0.2,4.8,0.5v13.5c-1.4-0.5-4.3-0.8-6.4-0.8 c-6.7,0-11.7,4.7-11.7,11.4v31.1H480V132.3z"></path> <path class="st2" d="M517.1,171.9c0-12.3,9.8-15.9,20.7-16.9c9.6-0.9,13.3-1.4,13.3-4.9v-0.2c0-4.5-3-7.1-8.2-7.1 c-5.5,0-8.7,2.7-9.8,6.3l-14.1-1.1c2.1-10,10.8-16.3,24-16.3c12.2,0,23.3,5.5,23.3,18.6v37.1h-14.5v-7.6h-0.4 c-2.7,5.1-8,8.7-16.1,8.7C524.8,188.3,517.1,182.8,517.1,171.9z M551.2,167.6v-5.8c-1.8,1.2-7.3,2-10.6,2.5 c-5.4,0.8-8.9,2.9-8.9,7.2c0,4.2,3.4,6.4,8.1,6.4C546.4,177.8,551.2,173.4,551.2,167.6z"></path> <path class="st2" d="M578.2,132.3h14.5v9.7h0.6c2.3-6.5,7.9-10.4,15.3-10.4c7.6,0,13.2,4,14.9,10.4h0.6c2.3-6.3,8.5-10.4,16.6-10.4 c10.2,0,17.3,6.8,17.3,18.7v37h-15.2v-34c0-6.1-3.7-9.2-8.5-9.2c-5.6,0-8.8,3.9-8.8,9.6v33.6h-14.8V153c0-5.4-3.4-8.8-8.4-8.8 c-5.1,0-9,4-9,10.1v33h-15.3V132.3z"></path> <path class="st2" d="M667.9,160c0-17,10.5-28.5,26.7-28.5c14.5,0,25.9,9.2,25.9,27.9v4.2H683v0c0,8.2,4.8,13.2,12.5,13.2 c5.1,0,9-2.2,10.6-6.4l14.1,0.9c-2.1,10.2-11.3,16.8-24.9,16.8C678.3,188.4,667.9,177.5,667.9,160z M706.1,154.2 c0-6.6-4.6-11.3-11.2-11.3c-6.8,0-11.5,5-11.9,11.3H706.1z"></path> <path class="st2" d="M721.1,113.9H738l12.1,51h0.6l13.4-51h14.5L792,165h0.6l12.1-51.1h16.9l-21,73.3h-15.1l-14-48h-0.6l-13.9,48 h-15.1L721.1,113.9z"></path> <path class="st2" d="M830,113.9H859c16.7,0,26.3,10.3,26.3,24.9c0,14.6-9.8,24.7-26.7,24.7h-13v23.8H830V113.9z M856.1,151.1 c8.9,0,13.2-5,13.2-12.3c0-7.3-4.3-12.2-13.3-12.2h-10.5v24.5H856.1z"></path> </g> </svg> 